solid IoT_3d
facet normal -1.0 0.0 0.0
  outer loop
    vertex 0.0 95.0 52.00000000000001
    vertex 0.0 0.0 0.0
    vertex 0.0 0.0 52.00000000000001
  endloop
endfacet
facet normal -1.0 0.0 0.0
  outer loop
    vertex 0.0 0.0 0.0
    vertex 0.0 95.0 52.00000000000001
    vertex 0.0 70.0 31.999999999999993
  endloop
endfacet
facet normal -1.0 0.0 0.0
  outer loop
    vertex 0.0 70.0 31.999999999999993
    vertex 0.0 95.0 52.00000000000001
    vertex 0.0 82.0 31.999999999999993
  endloop
endfacet
facet normal -1.0 0.0 0.0
  outer loop
    vertex 0.0 82.0 31.999999999999993
    vertex 0.0 95.0 52.00000000000001
    vertex 0.0 82.0 21.999999999999996
  endloop
endfacet
facet normal -1.0 0.0 0.0
  outer loop
    vertex 0.0 0.0 0.0
    vertex 0.0 70.0 21.999999999999996
    vertex 0.0 95.0 0.0
  endloop
endfacet
facet normal -1.0 0.0 0.0
  outer loop
    vertex 0.0 70.0 21.999999999999996
    vertex 0.0 0.0 0.0
    vertex 0.0 70.0 31.999999999999993
  endloop
endfacet
facet normal -1.0 0.0 0.0
  outer loop
    vertex 0.0 95.0 0.0
    vertex 0.0 70.0 21.999999999999996
    vertex 0.0 82.0 21.999999999999996
  endloop
endfacet
facet normal -1.0 0.0 0.0
  outer loop
    vertex 0.0 95.0 0.0
    vertex 0.0 82.0 21.999999999999996
    vertex 0.0 95.0 52.00000000000001
  endloop
endfacet
facet normal 1.0 0.0 0.0
  outer loop
    vertex 65.0 95.0 0.0
    vertex 65.0 0.0 52.00000000000001
    vertex 65.0 0.0 0.0
  endloop
endfacet
facet normal 1.0 0.0 0.0
  outer loop
    vertex 65.0 0.0 52.00000000000001
    vertex 65.0 95.0 0.0
    vertex 65.0 95.0 52.00000000000001
  endloop
endfacet
facet normal -1.0 -1.577819635455072e-33 2.0142617732484984e-17
  outer loop
    vertex 50.0 80.0 0.9999999999999992
    vertex 50.0 62.0 -2.114974861910923e-15
    vertex 50.0 62.0 0.9999999999999978
  endloop
endfacet
facet normal -1.0 -1.577819635455072e-33 2.0142617732484984e-17
  outer loop
    vertex 50.0 62.0 -2.114974861910923e-15
    vertex 50.0 80.0 0.9999999999999992
    vertex 50.0 80.0 -7.049916206369744e-16
  endloop
endfacet
facet normal -0.0 -1.0 -3.9166201146498574e-17
  outer loop
    vertex 50.0 80.0 0.9999999999999992
    vertex 15.000000000000007 80.0 -7.049916206369744e-16
    vertex 50.0 80.0 -7.049916206369744e-16
  endloop
endfacet
facet normal -0.0 -1.0 -3.9166201146498574e-17
  outer loop
    vertex 15.000000000000007 80.0 -7.049916206369744e-16
    vertex 50.0 80.0 0.9999999999999992
    vertex 15.000000000000007 80.0 0.9999999999999992
  endloop
endfacet
facet normal 1.0 -0.0 -2.0142617732484984e-17
  outer loop
    vertex 15.000000000000007 80.0 -7.049916206369744e-16
    vertex 15.000000000000007 62.0 0.9999999999999992
    vertex 15.000000000000007 62.0 -7.049916206369744e-16
  endloop
endfacet
facet normal 1.0 -0.0 -2.0142617732484984e-17
  outer loop
    vertex 15.000000000000007 62.0 0.9999999999999992
    vertex 15.000000000000007 80.0 -7.049916206369744e-16
    vertex 15.000000000000007 80.0 0.9999999999999992
  endloop
endfacet
facet normal 1.577819635455072e-33 1.0 3.9166201146498574e-17
  outer loop
    vertex 15.000000000000007 62.0 -7.049916206369744e-16
    vertex 50.0 62.0 0.9999999999999978
    vertex 50.0 62.0 -2.114974861910923e-15
  endloop
endfacet
facet normal 1.577819635455072e-33 1.0 3.9166201146498574e-17
  outer loop
    vertex 50.0 62.0 0.9999999999999978
    vertex 15.000000000000007 62.0 -7.049916206369744e-16
    vertex 15.000000000000007 62.0 0.9999999999999992
  endloop
endfacet
facet normal -0.0 -0.0 1.0
  outer loop
    vertex 2.000000000000001 1.9999999999999962 1.9999999999999998
    vertex 13.00000000000001 51.99999999999999 1.9999999999999991
    vertex 2.000000000000001 93.0 1.9999999999999998
  endloop
endfacet
facet normal -0.0 -0.0 1.0
  outer loop
    vertex 13.00000000000001 51.99999999999999 1.9999999999999991
    vertex 2.000000000000001 1.9999999999999962 1.9999999999999998
    vertex 63.00000000000001 2.0 1.9999999999999998
  endloop
endfacet
facet normal -0.0 -0.0 1.0
  outer loop
    vertex 13.00000000000001 51.99999999999999 1.9999999999999991
    vertex 63.00000000000001 2.0 1.9999999999999998
    vertex 51.99999999999999 51.99999999999999 1.9999999999999973
  endloop
endfacet
facet normal -0.0 -0.0 1.0
  outer loop
    vertex 51.99999999999999 51.99999999999999 1.9999999999999973
    vertex 63.00000000000001 2.0 1.9999999999999998
    vertex 51.99999999999999 90.0 1.9999999999999991
  endloop
endfacet
facet normal -0.0 -0.0 1.0
  outer loop
    vertex 2.000000000000001 93.0 1.9999999999999998
    vertex 13.00000000000001 90.0 1.9999999999999991
    vertex 63.00000000000001 93.0 1.9999999999999998
  endloop
endfacet
facet normal -0.0 -0.0 1.0
  outer loop
    vertex 13.00000000000001 90.0 1.9999999999999991
    vertex 2.000000000000001 93.0 1.9999999999999998
    vertex 13.00000000000001 51.99999999999999 1.9999999999999991
  endloop
endfacet
facet normal -0.0 -0.0 1.0
  outer loop
    vertex 63.00000000000001 93.0 1.9999999999999998
    vertex 13.00000000000001 90.0 1.9999999999999991
    vertex 51.99999999999999 90.0 1.9999999999999991
  endloop
endfacet
facet normal -0.0 -0.0 1.0
  outer loop
    vertex 63.00000000000001 93.0 1.9999999999999998
    vertex 51.99999999999999 90.0 1.9999999999999991
    vertex 63.00000000000001 2.0 1.9999999999999998
  endloop
endfacet
facet normal 0.0 -1.0 0.0
  outer loop
    vertex 63.00000000000001 93.0 49.00000000000001
    vertex 2.000000000000001 93.0 1.9999999999999998
    vertex 63.00000000000001 93.0 1.9999999999999998
  endloop
endfacet
facet normal 0.0 -1.0 0.0
  outer loop
    vertex 2.000000000000001 93.0 1.9999999999999998
    vertex 63.00000000000001 93.0 49.00000000000001
    vertex 1.9999999999999998 93.0 49.00000000000001
  endloop
endfacet
facet normal 2.2595885276826112e-17 -2.3190513836742576e-17 1.0
  outer loop
    vertex 13.00000000000001 51.99999999999999 0.9999999999999992
    vertex 15.000000000000007 62.0 0.9999999999999992
    vertex 13.00000000000001 90.0 0.9999999999999992
  endloop
endfacet
facet normal 2.2595885276826112e-17 -2.3190513836742576e-17 1.0
  outer loop
    vertex 15.000000000000007 62.0 0.9999999999999992
    vertex 13.00000000000001 51.99999999999999 0.9999999999999992
    vertex 51.99999999999999 51.99999999999999 0.9999999999999974
  endloop
endfacet
facet normal 2.2595885276826112e-17 -2.3190513836742576e-17 1.0
  outer loop
    vertex 15.000000000000007 62.0 0.9999999999999992
    vertex 51.99999999999999 51.99999999999999 0.9999999999999974
    vertex 50.0 62.0 0.9999999999999978
  endloop
endfacet
facet normal 2.2595885276826112e-17 -2.3190513836742576e-17 1.0
  outer loop
    vertex 50.0 62.0 0.9999999999999978
    vertex 51.99999999999999 51.99999999999999 0.9999999999999974
    vertex 50.0 80.0 0.9999999999999992
  endloop
endfacet
facet normal 2.2595885276826112e-17 -2.3190513836742576e-17 1.0
  outer loop
    vertex 13.00000000000001 90.0 0.9999999999999992
    vertex 15.000000000000007 80.0 0.9999999999999992
    vertex 51.99999999999999 90.0 0.9999999999999992
  endloop
endfacet
facet normal 2.2595885276826112e-17 -2.3190513836742576e-17 1.0
  outer loop
    vertex 15.000000000000007 80.0 0.9999999999999992
    vertex 13.00000000000001 90.0 0.9999999999999992
    vertex 15.000000000000007 62.0 0.9999999999999992
  endloop
endfacet
facet normal 2.2595885276826112e-17 -2.3190513836742576e-17 1.0
  outer loop
    vertex 51.99999999999999 90.0 0.9999999999999992
    vertex 15.000000000000007 80.0 0.9999999999999992
    vertex 50.0 80.0 0.9999999999999992
  endloop
endfacet
facet normal 2.2595885276826112e-17 -2.3190513836742576e-17 1.0
  outer loop
    vertex 51.99999999999999 90.0 0.9999999999999992
    vertex 50.0 80.0 0.9999999999999992
    vertex 51.99999999999999 51.99999999999999 0.9999999999999974
  endloop
endfacet
facet normal -0.0 -1.0 -2.3190513836742576e-17
  outer loop
    vertex 51.99999999999999 90.0 1.9999999999999991
    vertex 13.00000000000001 90.0 0.9999999999999992
    vertex 51.99999999999999 90.0 0.9999999999999992
  endloop
endfacet
facet normal -0.0 -1.0 -2.3190513836742576e-17
  outer loop
    vertex 13.00000000000001 90.0 0.9999999999999992
    vertex 51.99999999999999 90.0 1.9999999999999991
    vertex 13.00000000000001 90.0 1.9999999999999991
  endloop
endfacet
facet normal 1.0 -0.0 -2.2595885276826115e-17
  outer loop
    vertex 13.00000000000001 90.0 0.9999999999999992
    vertex 13.00000000000001 51.99999999999999 1.9999999999999991
    vertex 13.00000000000001 51.99999999999999 0.9999999999999992
  endloop
endfacet
facet normal 1.0 -0.0 -2.2595885276826115e-17
  outer loop
    vertex 13.00000000000001 51.99999999999999 1.9999999999999991
    vertex 13.00000000000001 90.0 0.9999999999999992
    vertex 13.00000000000001 90.0 1.9999999999999991
  endloop
endfacet
facet normal 1.0480203803313677e-33 1.0 2.3190513836742576e-17
  outer loop
    vertex 13.00000000000001 51.99999999999999 0.9999999999999992
    vertex 51.99999999999999 51.99999999999999 1.9999999999999973
    vertex 51.99999999999999 51.99999999999999 0.9999999999999974
  endloop
endfacet
facet normal 1.0480203803313677e-33 1.0 2.3190513836742576e-17
  outer loop
    vertex 51.99999999999999 51.99999999999999 1.9999999999999973
    vertex 13.00000000000001 51.99999999999999 0.9999999999999992
    vertex 13.00000000000001 51.99999999999999 1.9999999999999991
  endloop
endfacet
facet normal -1.0 -1.0480203803313675e-33 2.2595885276826115e-17
  outer loop
    vertex 51.99999999999999 90.0 1.9999999999999991
    vertex 51.99999999999999 51.99999999999999 0.9999999999999974
    vertex 51.99999999999999 51.99999999999999 1.9999999999999973
  endloop
endfacet
facet normal -1.0 -1.0480203803313675e-33 2.2595885276826115e-17
  outer loop
    vertex 51.99999999999999 51.99999999999999 0.9999999999999974
    vertex 51.99999999999999 90.0 1.9999999999999991
    vertex 51.99999999999999 90.0 0.9999999999999992
  endloop
endfacet
facet normal 0.0 0.0 -1.0
  outer loop
    vertex 0.0 95.0 0.0
    vertex 15.000000000000007 80.0 -7.049916206369744e-16
    vertex 0.0 0.0 0.0
  endloop
endfacet
facet normal 0.0 0.0 -1.0
  outer loop
    vertex 15.000000000000007 80.0 -7.049916206369744e-16
    vertex 0.0 95.0 0.0
    vertex 65.0 95.0 0.0
  endloop
endfacet
facet normal 0.0 0.0 -1.0
  outer loop
    vertex 15.000000000000007 80.0 -7.049916206369744e-16
    vertex 65.0 95.0 0.0
    vertex 50.0 80.0 -7.049916206369744e-16
  endloop
endfacet
facet normal 0.0 0.0 -1.0
  outer loop
    vertex 50.0 80.0 -7.049916206369744e-16
    vertex 65.0 95.0 0.0
    vertex 50.0 62.0 -2.114974861910923e-15
  endloop
endfacet
facet normal 0.0 0.0 -1.0
  outer loop
    vertex 0.0 0.0 0.0
    vertex 15.000000000000007 62.0 -7.049916206369744e-16
    vertex 65.0 0.0 0.0
  endloop
endfacet
facet normal 0.0 0.0 -1.0
  outer loop
    vertex 15.000000000000007 62.0 -7.049916206369744e-16
    vertex 0.0 0.0 0.0
    vertex 15.000000000000007 80.0 -7.049916206369744e-16
  endloop
endfacet
facet normal 0.0 0.0 -1.0
  outer loop
    vertex 65.0 0.0 0.0
    vertex 15.000000000000007 62.0 -7.049916206369744e-16
    vertex 50.0 62.0 -2.114974861910923e-15
  endloop
endfacet
facet normal 0.0 0.0 -1.0
  outer loop
    vertex 65.0 0.0 0.0
    vertex 50.0 62.0 -2.114974861910923e-15
    vertex 65.0 95.0 0.0
  endloop
endfacet
facet normal -0.0 -1.0 -0.0
  outer loop
    vertex 65.0 0.0 52.00000000000001
    vertex 0.0 0.0 0.0
    vertex 65.0 0.0 0.0
  endloop
endfacet
facet normal -0.0 -1.0 -0.0
  outer loop
    vertex 0.0 0.0 0.0
    vertex 65.0 0.0 52.00000000000001
    vertex 0.0 0.0 52.00000000000001
  endloop
endfacet
facet normal -0.0 1.0 -0.0
  outer loop
    vertex 0.0 95.0 0.0
    vertex 1.9999999999999998 95.0 49.00000000000001
    vertex 65.0 95.0 0.0
  endloop
endfacet
facet normal -0.0 1.0 -0.0
  outer loop
    vertex 1.9999999999999998 95.0 49.00000000000001
    vertex 0.0 95.0 0.0
    vertex 1.0000000000000007 95.0 50.00000000000001
  endloop
endfacet
facet normal -0.0 1.0 -0.0
  outer loop
    vertex 1.0000000000000007 95.0 50.00000000000001
    vertex 0.0 95.0 0.0
    vertex 0.0 95.0 52.00000000000001
  endloop
endfacet
facet normal -0.0 1.0 -0.0
  outer loop
    vertex 1.0000000000000007 95.0 50.00000000000001
    vertex 0.0 95.0 52.00000000000001
    vertex 0.9999999999999996 95.0 51.00000000000001
  endloop
endfacet
facet normal -0.0 1.0 -0.0
  outer loop
    vertex 0.9999999999999996 95.0 51.00000000000001
    vertex 0.0 95.0 52.00000000000001
    vertex 1.9999999999999991 95.0 51.00000000000001
  endloop
endfacet
facet normal -0.0 1.0 -0.0
  outer loop
    vertex 1.9999999999999991 95.0 51.00000000000001
    vertex 0.0 95.0 52.00000000000001
    vertex 1.9999999999999962 95.0 52.00000000000001
  endloop
endfacet
facet normal -0.0 1.0 -0.0
  outer loop
    vertex 2.0 95.0 50.00000000000001
    vertex 1.9999999999999998 95.0 49.00000000000001
    vertex 1.0000000000000007 95.0 50.00000000000001
  endloop
endfacet
facet normal -0.0 1.0 -0.0
  outer loop
    vertex 63.00000000000001 95.0 52.00000000000001
    vertex 64.0 95.0 51.00000000000001
    vertex 63.00000000000001 95.0 51.00000000000001
  endloop
endfacet
facet normal -0.0 1.0 -0.0
  outer loop
    vertex 65.0 95.0 0.0
    vertex 64.0 95.0 50.00000000000001
    vertex 65.0 95.0 52.00000000000001
  endloop
endfacet
facet normal -0.0 1.0 -0.0
  outer loop
    vertex 64.0 95.0 50.00000000000001
    vertex 65.0 95.0 0.0
    vertex 63.00000000000001 95.0 49.00000000000001
  endloop
endfacet
facet normal -0.0 1.0 -0.0
  outer loop
    vertex 63.00000000000001 95.0 49.00000000000001
    vertex 65.0 95.0 0.0
    vertex 1.9999999999999998 95.0 49.00000000000001
  endloop
endfacet
facet normal -0.0 1.0 -0.0
  outer loop
    vertex 64.0 95.0 50.00000000000001
    vertex 63.00000000000001 95.0 49.00000000000001
    vertex 63.00000000000001 95.0 50.00000000000001
  endloop
endfacet
facet normal -0.0 1.0 -0.0
  outer loop
    vertex 65.0 95.0 52.00000000000001
    vertex 64.0 95.0 50.00000000000001
    vertex 64.0 95.0 51.00000000000001
  endloop
endfacet
facet normal -0.0 1.0 -0.0
  outer loop
    vertex 65.0 95.0 52.00000000000001
    vertex 64.0 95.0 51.00000000000001
    vertex 63.00000000000001 95.0 52.00000000000001
  endloop
endfacet
facet normal -0.0 -0.0 1.0
  outer loop
    vertex 0.0 0.0 52.00000000000001
    vertex 2.000000000000001 1.9999999999999962 52.00000000000001
    vertex 0.0 95.0 52.00000000000001
  endloop
endfacet
facet normal -0.0 -0.0 1.0
  outer loop
    vertex 2.000000000000001 1.9999999999999962 52.00000000000001
    vertex 0.0 0.0 52.00000000000001
    vertex 65.0 0.0 52.00000000000001
  endloop
endfacet
facet normal -0.0 -0.0 1.0
  outer loop
    vertex 0.0 95.0 52.00000000000001
    vertex 2.000000000000001 1.9999999999999962 52.00000000000001
    vertex 1.9999999999999962 95.0 52.00000000000001
  endloop
endfacet
facet normal -0.0 -0.0 1.0
  outer loop
    vertex 2.000000000000001 1.9999999999999962 52.00000000000001
    vertex 65.0 0.0 52.00000000000001
    vertex 63.00000000000001 2.0 52.00000000000001
  endloop
endfacet
facet normal -0.0 -0.0 1.0
  outer loop
    vertex 63.00000000000001 2.0 52.00000000000001
    vertex 65.0 0.0 52.00000000000001
    vertex 63.00000000000001 95.0 52.00000000000001
  endloop
endfacet
facet normal -0.0 -0.0 1.0
  outer loop
    vertex 63.00000000000001 95.0 52.00000000000001
    vertex 65.0 0.0 52.00000000000001
    vertex 65.0 95.0 52.00000000000001
  endloop
endfacet
facet normal -0.0 0.0 -1.0
  outer loop
    vertex 1.9999999999999998 82.0 31.999999999999993
    vertex 0.0 70.0 31.999999999999993
    vertex 0.0 82.0 31.999999999999993
  endloop
endfacet
facet normal -0.0 0.0 -1.0
  outer loop
    vertex 0.0 70.0 31.999999999999993
    vertex 1.9999999999999998 82.0 31.999999999999993
    vertex 1.9999999999999998 70.0 31.999999999999993
  endloop
endfacet
facet normal -0.0 -1.0 -0.0
  outer loop
    vertex 1.9999999999999998 82.0 31.999999999999993
    vertex 0.0 82.0 21.999999999999996
    vertex 1.9999999999999998 82.0 21.999999999999996
  endloop
endfacet
facet normal -0.0 -1.0 -0.0
  outer loop
    vertex 0.0 82.0 21.999999999999996
    vertex 1.9999999999999998 82.0 31.999999999999993
    vertex 0.0 82.0 31.999999999999993
  endloop
endfacet
facet normal 0.0 0.0 1.0
  outer loop
    vertex 1.9999999999999998 70.0 21.999999999999996
    vertex 0.0 82.0 21.999999999999996
    vertex 0.0 70.0 21.999999999999996
  endloop
endfacet
facet normal 0.0 0.0 1.0
  outer loop
    vertex 0.0 82.0 21.999999999999996
    vertex 1.9999999999999998 70.0 21.999999999999996
    vertex 1.9999999999999998 82.0 21.999999999999996
  endloop
endfacet
facet normal -0.0 1.0 -0.0
  outer loop
    vertex 0.0 70.0 31.999999999999993
    vertex 1.9999999999999998 70.0 21.999999999999996
    vertex 0.0 70.0 21.999999999999996
  endloop
endfacet
facet normal -0.0 1.0 -0.0
  outer loop
    vertex 1.9999999999999998 70.0 21.999999999999996
    vertex 0.0 70.0 31.999999999999993
    vertex 1.9999999999999998 70.0 31.999999999999993
  endloop
endfacet
facet normal -0.0 -0.0 1.0
  outer loop
    vertex 63.00000000000001 93.0 49.00000000000001
    vertex 1.9999999999999998 95.0 49.00000000000001
    vertex 1.9999999999999998 93.0 49.00000000000001
  endloop
endfacet
facet normal -0.0 -0.0 1.0
  outer loop
    vertex 1.9999999999999998 95.0 49.00000000000001
    vertex 63.00000000000001 93.0 49.00000000000001
    vertex 63.00000000000001 95.0 49.00000000000001
  endloop
endfacet
facet normal -6.356481825415342e-17 1.0 4.314350565697456e-34
  outer loop
    vertex 2.0000000000000018 1.9999999999999962 50.00000000000001
    vertex 63.00000000000001 2.0 1.9999999999999998
    vertex 2.000000000000001 1.9999999999999962 1.9999999999999998
  endloop
endfacet
facet normal -6.356481825415342e-17 1.0 4.314350565697456e-34
  outer loop
    vertex 63.00000000000001 2.0 1.9999999999999998
    vertex 2.0000000000000018 1.9999999999999962 50.00000000000001
    vertex 63.00000000000001 2.0 50.00000000000001
  endloop
endfacet
facet normal -6.356481825415342e-17 1.0 1.4228020895085014e-31
  outer loop
    vertex 2.000000000000001 1.9999999999999962 52.00000000000001
    vertex 63.00000000000001 2.0 51.0
    vertex 2.0000000000000013 1.9999999999999962 51.0
  endloop
endfacet
facet normal -6.356481825415342e-17 1.0 1.4228020895085014e-31
  outer loop
    vertex 63.00000000000001 2.0 51.0
    vertex 2.000000000000001 1.9999999999999962 52.00000000000001
    vertex 63.00000000000001 2.0 52.00000000000001
  endloop
endfacet
facet normal -6.356481825415342e-17 1.0 -2.0219233782492407e-45
  outer loop
    vertex 1.0000000000000013 0.9999999999999964 51.0
    vertex 64.0 1.0000000000000002 50.00000000000001
    vertex 1.0000000000000018 0.9999999999999964 50.00000000000001
  endloop
endfacet
facet normal -6.356481825415342e-17 1.0 -2.0219233782492407e-45
  outer loop
    vertex 64.0 1.0000000000000002 50.00000000000001
    vertex 1.0000000000000013 0.9999999999999964 51.0
    vertex 64.0 1.0000000000000002 51.0
  endloop
endfacet
facet normal -0.0 -0.0 1.0
  outer loop
    vertex 64.0 1.0000000000000002 50.00000000000001
    vertex 1.0000000000000018 1.9999999999999962 50.00000000000001
    vertex 1.0000000000000018 0.9999999999999964 50.00000000000001
  endloop
endfacet
facet normal -0.0 -0.0 1.0
  outer loop
    vertex 1.0000000000000018 1.9999999999999962 50.00000000000001
    vertex 64.0 1.0000000000000002 50.00000000000001
    vertex 2.0000000000000018 1.9999999999999962 50.00000000000001
  endloop
endfacet
facet normal -0.0 -0.0 1.0
  outer loop
    vertex 2.0000000000000018 1.9999999999999962 50.00000000000001
    vertex 64.0 1.0000000000000002 50.00000000000001
    vertex 63.00000000000001 2.0 50.00000000000001
  endloop
endfacet
facet normal -0.0 -0.0 1.0
  outer loop
    vertex 63.00000000000001 2.0 50.00000000000001
    vertex 64.0 1.0000000000000002 50.00000000000001
    vertex 64.0 2.0 50.00000000000001
  endloop
endfacet
facet normal 0.0 0.0 -1.0
  outer loop
    vertex 2.0000000000000013 1.9999999999999962 51.0
    vertex 1.0000000000000013 0.9999999999999964 51.0
    vertex 1.0000000000000013 1.9999999999999962 51.0
  endloop
endfacet
facet normal 0.0 0.0 -1.0
  outer loop
    vertex 1.0000000000000013 0.9999999999999964 51.0
    vertex 2.0000000000000013 1.9999999999999962 51.0
    vertex 64.0 1.0000000000000002 51.0
  endloop
endfacet
facet normal 0.0 0.0 -1.0
  outer loop
    vertex 64.0 1.0000000000000002 51.0
    vertex 2.0000000000000013 1.9999999999999962 51.0
    vertex 63.00000000000001 2.0 51.0
  endloop
endfacet
facet normal 0.0 0.0 -1.0
  outer loop
    vertex 64.0 1.0000000000000002 51.0
    vertex 63.00000000000001 2.0 51.0
    vertex 64.0 2.0 51.0
  endloop
endfacet
facet normal -1.0 0.0 0.0
  outer loop
    vertex 63.00000000000001 95.0 52.00000000000001
    vertex 63.00000000000001 2.0 51.0
    vertex 63.00000000000001 2.0 52.00000000000001
  endloop
endfacet
facet normal -1.0 0.0 0.0
  outer loop
    vertex 63.00000000000001 2.0 51.0
    vertex 63.00000000000001 95.0 52.00000000000001
    vertex 63.00000000000001 93.0 51.0
  endloop
endfacet
facet normal -1.0 0.0 0.0
  outer loop
    vertex 63.00000000000001 93.0 51.0
    vertex 63.00000000000001 95.0 52.00000000000001
    vertex 63.00000000000001 95.0 51.00000000000001
  endloop
endfacet
facet normal -1.0 0.0 0.0
  outer loop
    vertex 63.00000000000001 93.0 50.00000000000001
    vertex 63.00000000000001 2.0 1.9999999999999998
    vertex 63.00000000000001 2.0 50.00000000000001
  endloop
endfacet
facet normal -1.0 0.0 0.0
  outer loop
    vertex 63.00000000000001 2.0 1.9999999999999998
    vertex 63.00000000000001 93.0 50.00000000000001
    vertex 63.00000000000001 93.0 1.9999999999999998
  endloop
endfacet
facet normal -1.0 0.0 0.0
  outer loop
    vertex 63.00000000000001 93.0 1.9999999999999998
    vertex 63.00000000000001 93.0 50.00000000000001
    vertex 63.00000000000001 93.0 49.00000000000001
  endloop
endfacet
facet normal 0.0 0.0 -1.0
  outer loop
    vertex 64.0 93.0 51.0
    vertex 63.00000000000001 2.0 51.0
    vertex 63.00000000000001 93.0 51.0
  endloop
endfacet
facet normal 0.0 0.0 -1.0
  outer loop
    vertex 63.00000000000001 2.0 51.0
    vertex 64.0 93.0 51.0
    vertex 64.0 2.0 51.0
  endloop
endfacet
facet normal 1.0 1.971262149353999e-17 1.0574874309554565e-15
  outer loop
    vertex 2.000000000000001 93.0 51.00000000000001
    vertex 2.000000000000001 1.9999999999999962 52.00000000000001
    vertex 2.0000000000000013 1.9999999999999962 51.0
  endloop
endfacet
facet normal 1.0 1.971262149353999e-17 1.0574874309554565e-15
  outer loop
    vertex 2.000000000000001 1.9999999999999962 52.00000000000001
    vertex 2.000000000000001 93.0 51.00000000000001
    vertex 1.9999999999999962 95.0 52.00000000000001
  endloop
endfacet
facet normal 1.0 1.971262149353999e-17 1.0574874309554565e-15
  outer loop
    vertex 1.9999999999999962 95.0 52.00000000000001
    vertex 2.000000000000001 93.0 51.00000000000001
    vertex 1.9999999999999991 95.0 51.00000000000001
  endloop
endfacet
facet normal 1.0 1.0745566953412184e-17 5.3203716562894406e-18
  outer loop
    vertex 2.000000000000001 93.0 1.9999999999999998
    vertex 2.0000000000000018 1.9999999999999962 50.00000000000001
    vertex 2.000000000000001 1.9999999999999962 1.9999999999999998
  endloop
endfacet
facet normal 1.0 1.0745566953412184e-17 5.3203716562894406e-18
  outer loop
    vertex 2.0000000000000018 1.9999999999999962 50.00000000000001
    vertex 2.000000000000001 93.0 1.9999999999999998
    vertex 1.9999999999999998 70.0 21.999999999999996
  endloop
endfacet
facet normal 1.0 1.0745566953412184e-17 5.3203716562894406e-18
  outer loop
    vertex 1.9999999999999998 70.0 21.999999999999996
    vertex 2.000000000000001 93.0 1.9999999999999998
    vertex 1.9999999999999998 82.0 21.999999999999996
  endloop
endfacet
facet normal 1.0 1.0745566953412184e-17 5.3203716562894406e-18
  outer loop
    vertex 1.9999999999999998 82.0 21.999999999999996
    vertex 2.000000000000001 93.0 1.9999999999999998
    vertex 1.9999999999999998 82.0 31.999999999999993
  endloop
endfacet
facet normal 1.0 1.0745566953412184e-17 5.3203716562894406e-18
  outer loop
    vertex 2.0000000000000018 1.9999999999999962 50.00000000000001
    vertex 1.9999999999999998 93.0 49.00000000000001
    vertex 2.0 95.0 50.00000000000001
  endloop
endfacet
facet normal 1.0 1.0745566953412184e-17 5.3203716562894406e-18
  outer loop
    vertex 1.9999999999999998 93.0 49.00000000000001
    vertex 2.0000000000000018 1.9999999999999962 50.00000000000001
    vertex 1.9999999999999998 70.0 31.999999999999993
  endloop
endfacet
facet normal 1.0 1.0745566953412184e-17 5.3203716562894406e-18
  outer loop
    vertex 1.9999999999999998 70.0 31.999999999999993
    vertex 2.0000000000000018 1.9999999999999962 50.00000000000001
    vertex 1.9999999999999998 70.0 21.999999999999996
  endloop
endfacet
facet normal 1.0 1.0745566953412184e-17 5.3203716562894406e-18
  outer loop
    vertex 1.9999999999999998 93.0 49.00000000000001
    vertex 1.9999999999999998 70.0 31.999999999999993
    vertex 1.9999999999999998 82.0 31.999999999999993
  endloop
endfacet
facet normal 1.0 1.0745566953412184e-17 5.3203716562894406e-18
  outer loop
    vertex 1.9999999999999998 93.0 49.00000000000001
    vertex 1.9999999999999998 82.0 31.999999999999993
    vertex 2.000000000000001 93.0 1.9999999999999998
  endloop
endfacet
facet normal 1.0 1.0745566953412184e-17 5.3203716562894406e-18
  outer loop
    vertex 2.0 95.0 50.00000000000001
    vertex 1.9999999999999998 93.0 49.00000000000001
    vertex 1.9999999999999998 95.0 49.00000000000001
  endloop
endfacet
facet normal -6.466633090542024e-31 1.2395457066144605e-16 -1.0
  outer loop
    vertex 2.000000000000001 93.0 51.00000000000001
    vertex 1.0000000000000013 1.9999999999999962 51.0
    vertex 1.0000000000000009 93.0 51.00000000000001
  endloop
endfacet
facet normal -6.466633090542024e-31 1.2395457066144605e-16 -1.0
  outer loop
    vertex 1.0000000000000013 1.9999999999999962 51.0
    vertex 2.000000000000001 93.0 51.00000000000001
    vertex 2.0000000000000013 1.9999999999999962 51.0
  endloop
endfacet
facet normal 1.0 1.2443148437852818e-17 2.6437185773886536e-16
  outer loop
    vertex 1.0000000000000018 1.9999999999999962 50.00000000000001
    vertex 1.0000000000000013 0.9999999999999964 51.0
    vertex 1.0000000000000018 0.9999999999999964 50.00000000000001
  endloop
endfacet
facet normal 1.0 1.2443148437852818e-17 2.6437185773886536e-16
  outer loop
    vertex 1.0000000000000013 0.9999999999999964 51.0
    vertex 1.0000000000000018 1.9999999999999962 50.00000000000001
    vertex 1.0000000000000013 1.9999999999999962 51.0
  endloop
endfacet
facet normal 1.0 1.2443148437852818e-17 2.6437185773886536e-16
  outer loop
    vertex 1.0000000000000013 1.9999999999999962 51.0
    vertex 1.0000000000000018 1.9999999999999962 50.00000000000001
    vertex 1.0000000000000007 95.0 50.00000000000001
  endloop
endfacet
facet normal 1.0 1.2443148437852818e-17 2.6437185773886536e-16
  outer loop
    vertex 1.0000000000000013 1.9999999999999962 51.0
    vertex 1.0000000000000007 95.0 50.00000000000001
    vertex 1.0000000000000009 93.0 51.00000000000001
  endloop
endfacet
facet normal 1.0 1.2443148437852818e-17 2.6437185773886536e-16
  outer loop
    vertex 1.0000000000000009 93.0 51.00000000000001
    vertex 1.0000000000000007 95.0 50.00000000000001
    vertex 0.9999999999999996 95.0 51.00000000000001
  endloop
endfacet
facet normal 0.0 0.0 -1.0
  outer loop
    vertex 1.9999999999999991 95.0 51.00000000000001
    vertex 1.0000000000000009 93.0 51.00000000000001
    vertex 0.9999999999999996 95.0 51.00000000000001
  endloop
endfacet
facet normal 0.0 0.0 -1.0
  outer loop
    vertex 1.0000000000000009 93.0 51.00000000000001
    vertex 1.9999999999999991 95.0 51.00000000000001
    vertex 2.000000000000001 93.0 51.00000000000001
  endloop
endfacet
facet normal -0.0 -0.0 1.0
  outer loop
    vertex 1.0000000000000018 1.9999999999999962 50.00000000000001
    vertex 2.0 95.0 50.00000000000001
    vertex 1.0000000000000007 95.0 50.00000000000001
  endloop
endfacet
facet normal -0.0 -0.0 1.0
  outer loop
    vertex 2.0 95.0 50.00000000000001
    vertex 1.0000000000000018 1.9999999999999962 50.00000000000001
    vertex 2.0000000000000018 1.9999999999999962 50.00000000000001
  endloop
endfacet
facet normal -1.0 0.0 0.0
  outer loop
    vertex 64.0 2.0 51.0
    vertex 64.0 1.0000000000000002 50.00000000000001
    vertex 64.0 1.0000000000000002 51.0
  endloop
endfacet
facet normal -1.0 0.0 0.0
  outer loop
    vertex 64.0 1.0000000000000002 50.00000000000001
    vertex 64.0 2.0 51.0
    vertex 64.0 2.0 50.00000000000001
  endloop
endfacet
facet normal -1.0 0.0 0.0
  outer loop
    vertex 64.0 2.0 50.00000000000001
    vertex 64.0 2.0 51.0
    vertex 64.0 93.0 51.0
  endloop
endfacet
facet normal -1.0 0.0 0.0
  outer loop
    vertex 64.0 2.0 50.00000000000001
    vertex 64.0 93.0 51.0
    vertex 64.0 95.0 50.00000000000001
  endloop
endfacet
facet normal -1.0 0.0 0.0
  outer loop
    vertex 64.0 95.0 50.00000000000001
    vertex 64.0 93.0 51.0
    vertex 64.0 95.0 51.00000000000001
  endloop
endfacet
facet normal 0.0 5.639932965095805e-15 -1.0
  outer loop
    vertex 64.0 95.0 51.00000000000001
    vertex 63.00000000000001 93.0 51.0
    vertex 63.00000000000001 95.0 51.00000000000001
  endloop
endfacet
facet normal 0.0 5.639932965095805e-15 -1.0
  outer loop
    vertex 63.00000000000001 93.0 51.0
    vertex 64.0 95.0 51.00000000000001
    vertex 64.0 93.0 51.0
  endloop
endfacet
facet normal -0.0 -0.0 1.0
  outer loop
    vertex 64.0 2.0 50.00000000000001
    vertex 63.00000000000001 93.0 50.00000000000001
    vertex 63.00000000000001 2.0 50.00000000000001
  endloop
endfacet
facet normal -0.0 -0.0 1.0
  outer loop
    vertex 63.00000000000001 93.0 50.00000000000001
    vertex 64.0 2.0 50.00000000000001
    vertex 63.00000000000001 95.0 50.00000000000001
  endloop
endfacet
facet normal -0.0 -0.0 1.0
  outer loop
    vertex 63.00000000000001 95.0 50.00000000000001
    vertex 64.0 2.0 50.00000000000001
    vertex 64.0 95.0 50.00000000000001
  endloop
endfacet
facet normal -1.0 0.0 0.0
  outer loop
    vertex 63.00000000000001 95.0 50.00000000000001
    vertex 63.00000000000001 93.0 49.00000000000001
    vertex 63.00000000000001 93.0 50.00000000000001
  endloop
endfacet
facet normal -1.0 0.0 0.0
  outer loop
    vertex 63.00000000000001 93.0 49.00000000000001
    vertex 63.00000000000001 95.0 50.00000000000001
    vertex 63.00000000000001 95.0 49.00000000000001
  endloop
endfacet
endsolid IoT_3d
